<svg width="1200" height="800" xmlns="http://www.w3.org/2000/svg" version="1.1"><defs><style>.chro{fill:#838B83;}.align{fill:#607B8B;opacity:0.5;}.line{stroke:#000000;stroke-width:3.5px;}.exon{fill:#36648B;}.UTR3{fill:#2F4F4F;}.UTR5{fill:#2F4F4F;}.intron{stroke:#36648B;stroke-width:1.5px;}</style></defs><line x1="215.61752988047806" y1="407.5" x2="239.61752988047806" y2="407.5" class="line"/><line x1="139.1235059760956" y1="207.5" x2="163.1235059760956" y2="207.5" class="line"/><line x1="120.0" y1="607.5" x2="144.0" y2="607.5" class="line"/><rect x="239.61752988047806" y="400.0" width="768.7649402390439" height="15" fill="grey" class="chro"/><rect x="163.1235059760956" y="200.0" width="921.7529880478087" height="15" fill="grey" class="chro"/><rect x="144.0" y="600.0" width="960.0" height="15" fill="grey" class="chro"/><text x="1011.982470119522" y="415.0" fill="black" font-size="18" transform="rotate(0,1011.982470119522 415.0)" class="label">ref 0 ~ 200 bp</text><text x="163.1235059760956" y="162.5" fill="black" font-size="18" transform="rotate(0,163.1235059760956 162.5)" class="label">s1 0 ~ 240 bp</text><text x="144.0" y="674.0" fill="black" font-size="18" transform="rotate(0,144.0 674.0)" class="label">s2 0 ~ 250 bp</text><path d="M239.61752988047806,400.0 C239.61752988047806,276.6666666666667 163.1235059760956,338.3333333333333 163.1235059760956,215.0 L262.5657370517928,215.0 C262.5657370517928,338.3333333333333 339.0597609561753,276.6666666666667 339.0597609561753,400.0 Z"  class="align"/><path d="M335.2350597609561,400.0 C335.2350597609561,276.6666666666667 335.2350597609562,338.3333333333333 335.2350597609562,215.0 L587.6653386454184,215.0 C587.6653386454184,338.3333333333333 587.6653386454184,276.6666666666667 587.6653386454184,400.0 Z"  class="align"/><path d="M583.8406374501992,400.0 C583.8406374501992,276.6666666666667 660.3346613545816,338.3333333333333 660.3346613545816,215.0 L1084.8764940239043,215.0 C1084.8764940239043,338.3333333333333 1008.3824701195219,276.6666666666667 1008.3824701195219,400.0 Z"  class="align"/><path d="M239.61752988047806,415.0 C239.61752988047806,538.3333333333334 144.0,476.6666666666667 144.0,600.0 L186.07171314741038,600.0 C186.07171314741038,476.6666666666667 281.68924302788844,538.3333333333334 281.68924302788844,415.0 Z"  class="align"/><path d="M277.8645418326693,415.0 C277.8645418326693,538.3333333333334 296.9880478087649,476.6666666666667 296.9880478087649,600.0 L606.788844621514,600.0 C606.788844621514,476.6666666666667 587.6653386454184,538.3333333333334 587.6653386454184,415.0 Z"  class="align"/><path d="M583.8406374501992,415.0 C583.8406374501992,538.3333333333334 679.4581673306773,476.6666666666667 679.4581673306773,600.0 L1104.0,600.0 C1104.0,476.6666666666667 1008.3824701195219,538.3333333333334 1008.3824701195219,415.0 Z"  class="align"/><polyline points="888.7649402390439,715.0 888.7649402390439,720.0 1080.0,720.0 1080.0,715.0 " fill="none" stroke="black" class="scale"/><text x="952.5099601593627" y="710.0" fill="black"  font-size="18" class="scale-text">50 bp</text><path d="M 163.1235059760956 200.0 L 1084.8764940239043 200.0 " stroke="black" fill="none"/><path d="M 166.94820717131472 200.0 L 166.94820717131472 198.0 " stroke="black" fill="none"/><path d="M 170.77290836653384 200.0 L 170.77290836653384 198.0 " stroke="black" fill="none"/><path d="M 174.59760956175296 200.0 L 174.59760956175296 198.0 " stroke="black" fill="none"/><path d="M 178.42231075697208 200.0 L 178.42231075697208 198.0 " stroke="black" fill="none"/><path d="M 186.07171314741035 200.0 L 186.07171314741035 198.0 " stroke="black" fill="none"/><path d="M 189.89641434262947 200.0 L 189.89641434262947 198.0 " stroke="black" fill="none"/><path d="M 193.7211155378486 200.0 L 193.7211155378486 198.0 " stroke="black" fill="none"/><path d="M 197.5458167330677 200.0 L 197.5458167330677 198.0 " stroke="black" fill="none"/><path d="M 205.19521912350598 200.0 L 205.19521912350598 198.0 " stroke="black" fill="none"/><path d="M 209.0199203187251 200.0 L 209.0199203187251 198.0 " stroke="black" fill="none"/><path d="M 212.84462151394422 200.0 L 212.84462151394422 198.0 " stroke="black" fill="none"/><path d="M 216.66932270916334 200.0 L 216.66932270916334 198.0 " stroke="black" fill="none"/><path d="M 224.31872509960158 200.0 L 224.31872509960158 198.0 " stroke="black" fill="none"/><path d="M 228.1434262948207 200.0 L 228.1434262948207 198.0 " stroke="black" fill="none"/><path d="M 231.96812749003982 200.0 L 231.96812749003982 198.0 " stroke="black" fill="none"/><path d="M 235.79282868525894 200.0 L 235.79282868525894 198.0 " stroke="black" fill="none"/><path d="M 243.44223107569718 200.0 L 243.44223107569718 198.0 " stroke="black" fill="none"/><path d="M 247.26693227091633 200.0 L 247.26693227091633 198.0 " stroke="black" fill="none"/><path d="M 251.09163346613545 200.0 L 251.09163346613545 198.0 " stroke="black" fill="none"/><path d="M 254.91633466135457 200.0 L 254.91633466135457 198.0 " stroke="black" fill="none"/><path d="M 262.5657370517928 200.0 L 262.5657370517928 198.0 " stroke="black" fill="none"/><path d="M 266.39043824701196 200.0 L 266.39043824701196 198.0 " stroke="black" fill="none"/><path d="M 270.2151394422311 200.0 L 270.2151394422311 198.0 " stroke="black" fill="none"/><path d="M 274.0398406374502 200.0 L 274.0398406374502 198.0 " stroke="black" fill="none"/><path d="M 281.68924302788844 200.0 L 281.68924302788844 198.0 " stroke="black" fill="none"/><path d="M 285.51394422310756 200.0 L 285.51394422310756 198.0 " stroke="black" fill="none"/><path d="M 289.3386454183267 200.0 L 289.3386454183267 198.0 " stroke="black" fill="none"/><path d="M 293.1633466135458 200.0 L 293.1633466135458 198.0 " stroke="black" fill="none"/><path d="M 300.81274900398404 200.0 L 300.81274900398404 198.0 " stroke="black" fill="none"/><path d="M 304.63745019920316 200.0 L 304.63745019920316 198.0 " stroke="black" fill="none"/><path d="M 308.46215139442234 200.0 L 308.46215139442234 198.0 " stroke="black" fill="none"/><path d="M 312.2868525896414 200.0 L 312.2868525896414 198.0 " stroke="black" fill="none"/><path d="M 319.93625498007964 200.0 L 319.93625498007964 198.0 " stroke="black" fill="none"/><path d="M 323.7609561752988 200.0 L 323.7609561752988 198.0 " stroke="black" fill="none"/><path d="M 327.5856573705179 200.0 L 327.5856573705179 198.0 " stroke="black" fill="none"/><path d="M 331.41035856573706 200.0 L 331.41035856573706 198.0 " stroke="black" fill="none"/><path d="M 339.0597609561753 200.0 L 339.0597609561753 198.0 " stroke="black" fill="none"/><path d="M 342.8844621513944 200.0 L 342.8844621513944 198.0 " stroke="black" fill="none"/><path d="M 346.70916334661354 200.0 L 346.70916334661354 198.0 " stroke="black" fill="none"/><path d="M 350.53386454183266 200.0 L 350.53386454183266 198.0 " stroke="black" fill="none"/><path d="M 358.1832669322709 200.0 L 358.1832669322709 198.0 " stroke="black" fill="none"/><path d="M 362.00796812749 200.0 L 362.00796812749 198.0 " stroke="black" fill="none"/><path d="M 365.8326693227092 200.0 L 365.8326693227092 198.0 " stroke="black" fill="none"/><path d="M 369.65737051792826 200.0 L 369.65737051792826 198.0 " stroke="black" fill="none"/><path d="M 377.3067729083665 200.0 L 377.3067729083665 198.0 " stroke="black" fill="none"/><path d="M 381.1314741035857 200.0 L 381.1314741035857 198.0 " stroke="black" fill="none"/><path d="M 384.95617529880474 200.0 L 384.95617529880474 198.0 " stroke="black" fill="none"/><path d="M 388.7808764940239 200.0 L 388.7808764940239 198.0 " stroke="black" fill="none"/><path d="M 396.43027888446215 200.0 L 396.43027888446215 198.0 " stroke="black" fill="none"/><path d="M 400.2549800796813 200.0 L 400.2549800796813 198.0 " stroke="black" fill="none"/><path d="M 404.0796812749004 200.0 L 404.0796812749004 198.0 " stroke="black" fill="none"/><path d="M 407.9043824701195 200.0 L 407.9043824701195 198.0 " stroke="black" fill="none"/><path d="M 415.55378486055776 200.0 L 415.55378486055776 198.0 " stroke="black" fill="none"/><path d="M 419.3784860557769 200.0 L 419.3784860557769 198.0 " stroke="black" fill="none"/><path d="M 423.203187250996 200.0 L 423.203187250996 198.0 " stroke="black" fill="none"/><path d="M 427.0278884462151 200.0 L 427.0278884462151 198.0 " stroke="black" fill="none"/><path d="M 434.67729083665336 200.0 L 434.67729083665336 198.0 " stroke="black" fill="none"/><path d="M 438.5019920318725 200.0 L 438.5019920318725 198.0 " stroke="black" fill="none"/><path d="M 442.32669322709165 200.0 L 442.32669322709165 198.0 " stroke="black" fill="none"/><path d="M 446.1513944223108 200.0 L 446.1513944223108 198.0 " stroke="black" fill="none"/><path d="M 453.800796812749 200.0 L 453.800796812749 198.0 " stroke="black" fill="none"/><path d="M 457.62549800796813 200.0 L 457.62549800796813 198.0 " stroke="black" fill="none"/><path d="M 461.45019920318725 200.0 L 461.45019920318725 198.0 " stroke="black" fill="none"/><path d="M 465.2749003984064 200.0 L 465.2749003984064 198.0 " stroke="black" fill="none"/><path d="M 472.9243027888446 200.0 L 472.9243027888446 198.0 " stroke="black" fill="none"/><path d="M 476.74900398406373 200.0 L 476.74900398406373 198.0 " stroke="black" fill="none"/><path d="M 480.57370517928285 200.0 L 480.57370517928285 198.0 " stroke="black" fill="none"/><path d="M 484.398406374502 200.0 L 484.398406374502 198.0 " stroke="black" fill="none"/><path d="M 492.0478087649402 200.0 L 492.0478087649402 198.0 " stroke="black" fill="none"/><path d="M 495.87250996015933 200.0 L 495.87250996015933 198.0 " stroke="black" fill="none"/><path d="M 499.6972111553785 200.0 L 499.6972111553785 198.0 " stroke="black" fill="none"/><path d="M 503.52191235059763 200.0 L 503.52191235059763 198.0 " stroke="black" fill="none"/><path d="M 511.17131474103587 200.0 L 511.17131474103587 198.0 " stroke="black" fill="none"/><path d="M 514.9960159362549 200.0 L 514.9960159362549 198.0 " stroke="black" fill="none"/><path d="M 518.8207171314741 200.0 L 518.8207171314741 198.0 " stroke="black" fill="none"/><path d="M 522.6454183266933 200.0 L 522.6454183266933 198.0 " stroke="black" fill="none"/><path d="M 530.2948207171314 200.0 L 530.2948207171314 198.0 " stroke="black" fill="none"/><path d="M 534.1195219123506 200.0 L 534.1195219123506 198.0 " stroke="black" fill="none"/><path d="M 537.9442231075698 200.0 L 537.9442231075698 198.0 " stroke="black" fill="none"/><path d="M 541.7689243027888 200.0 L 541.7689243027888 198.0 " stroke="black" fill="none"/><path d="M 549.4183266932271 200.0 L 549.4183266932271 198.0 " stroke="black" fill="none"/><path d="M 553.2430278884462 200.0 L 553.2430278884462 198.0 " stroke="black" fill="none"/><path d="M 557.0677290836653 200.0 L 557.0677290836653 198.0 " stroke="black" fill="none"/><path d="M 560.8924302788844 200.0 L 560.8924302788844 198.0 " stroke="black" fill="none"/><path d="M 568.5418326693227 200.0 L 568.5418326693227 198.0 " stroke="black" fill="none"/><path d="M 572.3665338645419 200.0 L 572.3665338645419 198.0 " stroke="black" fill="none"/><path d="M 576.191235059761 200.0 L 576.191235059761 198.0 " stroke="black" fill="none"/><path d="M 580.01593625498 200.0 L 580.01593625498 198.0 " stroke="black" fill="none"/><path d="M 587.6653386454184 200.0 L 587.6653386454184 198.0 " stroke="black" fill="none"/><path d="M 591.4900398406375 200.0 L 591.4900398406375 198.0 " stroke="black" fill="none"/><path d="M 595.3147410358565 200.0 L 595.3147410358565 198.0 " stroke="black" fill="none"/><path d="M 599.1394422310757 200.0 L 599.1394422310757 198.0 " stroke="black" fill="none"/><path d="M 606.7888446215139 200.0 L 606.7888446215139 198.0 " stroke="black" fill="none"/><path d="M 610.613545816733 200.0 L 610.613545816733 198.0 " stroke="black" fill="none"/><path d="M 614.4382470119522 200.0 L 614.4382470119522 198.0 " stroke="black" fill="none"/><path d="M 618.2629482071713 200.0 L 618.2629482071713 198.0 " stroke="black" fill="none"/><path d="M 625.9123505976096 200.0 L 625.9123505976096 198.0 " stroke="black" fill="none"/><path d="M 629.7370517928287 200.0 L 629.7370517928287 198.0 " stroke="black" fill="none"/><path d="M 633.5617529880478 200.0 L 633.5617529880478 198.0 " stroke="black" fill="none"/><path d="M 637.386454183267 200.0 L 637.386454183267 198.0 " stroke="black" fill="none"/><path d="M 645.0358565737051 200.0 L 645.0358565737051 198.0 " stroke="black" fill="none"/><path d="M 648.8605577689243 200.0 L 648.8605577689243 198.0 " stroke="black" fill="none"/><path d="M 652.6852589641435 200.0 L 652.6852589641435 198.0 " stroke="black" fill="none"/><path d="M 656.5099601593625 200.0 L 656.5099601593625 198.0 " stroke="black" fill="none"/><path d="M 664.1593625498008 200.0 L 664.1593625498008 198.0 " stroke="black" fill="none"/><path d="M 667.98406374502 200.0 L 667.98406374502 198.0 " stroke="black" fill="none"/><path d="M 671.808764940239 200.0 L 671.808764940239 198.0 " stroke="black" fill="none"/><path d="M 675.6334661354581 200.0 L 675.6334661354581 198.0 " stroke="black" fill="none"/><path d="M 683.2828685258964 200.0 L 683.2828685258964 198.0 " stroke="black" fill="none"/><path d="M 687.1075697211156 200.0 L 687.1075697211156 198.0 " stroke="black" fill="none"/><path d="M 690.9322709163346 200.0 L 690.9322709163346 198.0 " stroke="black" fill="none"/><path d="M 694.7569721115538 200.0 L 694.7569721115538 198.0 " stroke="black" fill="none"/><path d="M 702.4063745019921 200.0 L 702.4063745019921 198.0 " stroke="black" fill="none"/><path d="M 706.231075697211 200.0 L 706.231075697211 198.0 " stroke="black" fill="none"/><path d="M 710.0557768924302 200.0 L 710.0557768924302 198.0 " stroke="black" fill="none"/><path d="M 713.8804780876494 200.0 L 713.8804780876494 198.0 " stroke="black" fill="none"/><path d="M 721.5298804780878 200.0 L 721.5298804780878 198.0 " stroke="black" fill="none"/><path d="M 725.3545816733067 200.0 L 725.3545816733067 198.0 " stroke="black" fill="none"/><path d="M 729.1792828685259 200.0 L 729.1792828685259 198.0 " stroke="black" fill="none"/><path d="M 733.0039840637451 200.0 L 733.0039840637451 198.0 " stroke="black" fill="none"/><path d="M 740.6533864541832 200.0 L 740.6533864541832 198.0 " stroke="black" fill="none"/><path d="M 744.4780876494024 200.0 L 744.4780876494024 198.0 " stroke="black" fill="none"/><path d="M 748.3027888446215 200.0 L 748.3027888446215 198.0 " stroke="black" fill="none"/><path d="M 752.1274900398407 200.0 L 752.1274900398407 198.0 " stroke="black" fill="none"/><path d="M 759.7768924302788 200.0 L 759.7768924302788 198.0 " stroke="black" fill="none"/><path d="M 763.601593625498 200.0 L 763.601593625498 198.0 " stroke="black" fill="none"/><path d="M 767.4262948207172 200.0 L 767.4262948207172 198.0 " stroke="black" fill="none"/><path d="M 771.2509960159362 200.0 L 771.2509960159362 198.0 " stroke="black" fill="none"/><path d="M 778.9003984063745 200.0 L 778.9003984063745 198.0 " stroke="black" fill="none"/><path d="M 782.7250996015937 200.0 L 782.7250996015937 198.0 " stroke="black" fill="none"/><path d="M 786.5498007968129 200.0 L 786.5498007968129 198.0 " stroke="black" fill="none"/><path d="M 790.3745019920318 200.0 L 790.3745019920318 198.0 " stroke="black" fill="none"/><path d="M 798.0239043824702 200.0 L 798.0239043824702 198.0 " stroke="black" fill="none"/><path d="M 801.8486055776893 200.0 L 801.8486055776893 198.0 " stroke="black" fill="none"/><path d="M 805.6733067729083 200.0 L 805.6733067729083 198.0 " stroke="black" fill="none"/><path d="M 809.4980079681275 200.0 L 809.4980079681275 198.0 " stroke="black" fill="none"/><path d="M 817.1474103585658 200.0 L 817.1474103585658 198.0 " stroke="black" fill="none"/><path d="M 820.9721115537848 200.0 L 820.9721115537848 198.0 " stroke="black" fill="none"/><path d="M 824.796812749004 200.0 L 824.796812749004 198.0 " stroke="black" fill="none"/><path d="M 828.6215139442231 200.0 L 828.6215139442231 198.0 " stroke="black" fill="none"/><path d="M 836.2709163346615 200.0 L 836.2709163346615 198.0 " stroke="black" fill="none"/><path d="M 840.0956175298804 200.0 L 840.0956175298804 198.0 " stroke="black" fill="none"/><path d="M 843.9203187250996 200.0 L 843.9203187250996 198.0 " stroke="black" fill="none"/><path d="M 847.7450199203188 200.0 L 847.7450199203188 198.0 " stroke="black" fill="none"/><path d="M 855.3944223107569 200.0 L 855.3944223107569 198.0 " stroke="black" fill="none"/><path d="M 859.2191235059761 200.0 L 859.2191235059761 198.0 " stroke="black" fill="none"/><path d="M 863.0438247011953 200.0 L 863.0438247011953 198.0 " stroke="black" fill="none"/><path d="M 866.8685258964144 200.0 L 866.8685258964144 198.0 " stroke="black" fill="none"/><path d="M 874.5179282868526 200.0 L 874.5179282868526 198.0 " stroke="black" fill="none"/><path d="M 878.3426294820717 200.0 L 878.3426294820717 198.0 " stroke="black" fill="none"/><path d="M 882.1673306772909 200.0 L 882.1673306772909 198.0 " stroke="black" fill="none"/><path d="M 885.9920318725099 200.0 L 885.9920318725099 198.0 " stroke="black" fill="none"/><path d="M 893.6414342629482 200.0 L 893.6414342629482 198.0 " stroke="black" fill="none"/><path d="M 897.4661354581674 200.0 L 897.4661354581674 198.0 " stroke="black" fill="none"/><path d="M 901.2908366533866 200.0 L 901.2908366533866 198.0 " stroke="black" fill="none"/><path d="M 905.1155378486055 200.0 L 905.1155378486055 198.0 " stroke="black" fill="none"/><path d="M 912.7649402390439 200.0 L 912.7649402390439 198.0 " stroke="black" fill="none"/><path d="M 916.5896414342631 200.0 L 916.5896414342631 198.0 " stroke="black" fill="none"/><path d="M 920.414342629482 200.0 L 920.414342629482 198.0 " stroke="black" fill="none"/><path d="M 924.2390438247012 200.0 L 924.2390438247012 198.0 " stroke="black" fill="none"/><path d="M 931.8884462151395 200.0 L 931.8884462151395 198.0 " stroke="black" fill="none"/><path d="M 935.7131474103585 200.0 L 935.7131474103585 198.0 " stroke="black" fill="none"/><path d="M 939.5378486055777 200.0 L 939.5378486055777 198.0 " stroke="black" fill="none"/><path d="M 943.3625498007968 200.0 L 943.3625498007968 198.0 " stroke="black" fill="none"/><path d="M 951.011952191235 200.0 L 951.011952191235 198.0 " stroke="black" fill="none"/><path d="M 954.8366533864541 200.0 L 954.8366533864541 198.0 " stroke="black" fill="none"/><path d="M 958.6613545816733 200.0 L 958.6613545816733 198.0 " stroke="black" fill="none"/><path d="M 962.4860557768925 200.0 L 962.4860557768925 198.0 " stroke="black" fill="none"/><path d="M 970.1354581673306 200.0 L 970.1354581673306 198.0 " stroke="black" fill="none"/><path d="M 973.9601593625498 200.0 L 973.9601593625498 198.0 " stroke="black" fill="none"/><path d="M 977.784860557769 200.0 L 977.784860557769 198.0 " stroke="black" fill="none"/><path d="M 981.6095617529882 200.0 L 981.6095617529882 198.0 " stroke="black" fill="none"/><path d="M 989.2589641434263 200.0 L 989.2589641434263 198.0 " stroke="black" fill="none"/><path d="M 993.0836653386455 200.0 L 993.0836653386455 198.0 " stroke="black" fill="none"/><path d="M 996.9083665338646 200.0 L 996.9083665338646 198.0 " stroke="black" fill="none"/><path d="M 1000.7330677290836 200.0 L 1000.7330677290836 198.0 " stroke="black" fill="none"/><path d="M 1008.3824701195219 200.0 L 1008.3824701195219 198.0 " stroke="black" fill="none"/><path d="M 1012.2071713147411 200.0 L 1012.2071713147411 198.0 " stroke="black" fill="none"/><path d="M 1016.0318725099601 200.0 L 1016.0318725099601 198.0 " stroke="black" fill="none"/><path d="M 1019.8565737051792 200.0 L 1019.8565737051792 198.0 " stroke="black" fill="none"/><path d="M 1027.5059760956176 200.0 L 1027.5059760956176 198.0 " stroke="black" fill="none"/><path d="M 1031.3306772908368 200.0 L 1031.3306772908368 198.0 " stroke="black" fill="none"/><path d="M 1035.1553784860557 200.0 L 1035.1553784860557 198.0 " stroke="black" fill="none"/><path d="M 1038.980079681275 200.0 L 1038.980079681275 198.0 " stroke="black" fill="none"/><path d="M 1046.6294820717133 200.0 L 1046.6294820717133 198.0 " stroke="black" fill="none"/><path d="M 1050.4541832669322 200.0 L 1050.4541832669322 198.0 " stroke="black" fill="none"/><path d="M 1054.2788844621514 200.0 L 1054.2788844621514 198.0 " stroke="black" fill="none"/><path d="M 1058.1035856573706 200.0 L 1058.1035856573706 198.0 " stroke="black" fill="none"/><path d="M 1065.7529880478087 200.0 L 1065.7529880478087 198.0 " stroke="black" fill="none"/><path d="M 1069.5776892430279 200.0 L 1069.5776892430279 198.0 " stroke="black" fill="none"/><path d="M 1073.402390438247 200.0 L 1073.402390438247 198.0 " stroke="black" fill="none"/><path d="M 1077.2270916334662 200.0 L 1077.2270916334662 198.0 " stroke="black" fill="none"/><path d="M 182.24701195219123 200.0 L 182.24701195219123 195.0 " stroke="black" fill="none"/><path d="M 220.49402390438246 200.0 L 220.49402390438246 195.0 " stroke="black" fill="none"/><path d="M 258.7410358565737 200.0 L 258.7410358565737 195.0 " stroke="black" fill="none"/><path d="M 296.9880478087649 200.0 L 296.9880478087649 195.0 " stroke="black" fill="none"/><path d="M 335.2350597609562 200.0 L 335.2350597609562 195.0 " stroke="black" fill="none"/><path d="M 373.48207171314743 200.0 L 373.48207171314743 195.0 " stroke="black" fill="none"/><path d="M 411.72908366533864 200.0 L 411.72908366533864 195.0 " stroke="black" fill="none"/><path d="M 449.9760956175299 200.0 L 449.9760956175299 195.0 " stroke="black" fill="none"/><path d="M 488.2231075697211 200.0 L 488.2231075697211 195.0 " stroke="black" fill="none"/><path d="M 526.4701195219124 200.0 L 526.4701195219124 195.0 " stroke="black" fill="none"/><path d="M 564.7171314741036 200.0 L 564.7171314741036 195.0 " stroke="black" fill="none"/><path d="M 602.9641434262949 200.0 L 602.9641434262949 195.0 " stroke="black" fill="none"/><path d="M 641.2111553784861 200.0 L 641.2111553784861 195.0 " stroke="black" fill="none"/><path d="M 679.4581673306773 200.0 L 679.4581673306773 195.0 " stroke="black" fill="none"/><path d="M 717.7051792828686 200.0 L 717.7051792828686 195.0 " stroke="black" fill="none"/><path d="M 755.9521912350597 200.0 L 755.9521912350597 195.0 " stroke="black" fill="none"/><path d="M 794.199203187251 200.0 L 794.199203187251 195.0 " stroke="black" fill="none"/><path d="M 832.4462151394423 200.0 L 832.4462151394423 195.0 " stroke="black" fill="none"/><path d="M 870.6932270916334 200.0 L 870.6932270916334 195.0 " stroke="black" fill="none"/><path d="M 908.9402390438247 200.0 L 908.9402390438247 195.0 " stroke="black" fill="none"/><path d="M 947.187250996016 200.0 L 947.187250996016 195.0 " stroke="black" fill="none"/><path d="M 985.4342629482071 200.0 L 985.4342629482071 195.0 " stroke="black" fill="none"/><path d="M 1023.6812749003984 200.0 L 1023.6812749003984 195.0 " stroke="black" fill="none"/><path d="M 1061.9282868525897 200.0 L 1061.9282868525897 195.0 " stroke="black" fill="none"/><path d="M 163.1235059760956 200.0 L 163.1235059760956 192.0 " stroke="black" fill="none"/><text x="163.1235059760956" y="188.0" fill="black" transform="rotate(335,163.1235059760956 188.0)" font-size="9">0.00 Kb</text><path d="M 201.37051792828683 200.0 L 201.37051792828683 192.0 " stroke="black" fill="none"/><text x="201.37051792828683" y="188.0" fill="black" transform="rotate(335,201.37051792828683 188.0)" font-size="9">0.01 Kb</text><path d="M 239.61752988047806 200.0 L 239.61752988047806 192.0 " stroke="black" fill="none"/><text x="239.61752988047806" y="188.0" fill="black" transform="rotate(335,239.61752988047806 188.0)" font-size="9">0.02 Kb</text><path d="M 277.8645418326693 200.0 L 277.8645418326693 192.0 " stroke="black" fill="none"/><text x="277.8645418326693" y="188.0" fill="black" transform="rotate(335,277.8645418326693 188.0)" font-size="9">0.03 Kb</text><path d="M 316.1115537848606 200.0 L 316.1115537848606 192.0 " stroke="black" fill="none"/><text x="316.1115537848606" y="188.0" fill="black" transform="rotate(335,316.1115537848606 188.0)" font-size="9">0.04 Kb</text><path d="M 354.3585657370518 200.0 L 354.3585657370518 192.0 " stroke="black" fill="none"/><text x="354.3585657370518" y="188.0" fill="black" transform="rotate(335,354.3585657370518 188.0)" font-size="9">0.05 Kb</text><path d="M 392.60557768924303 200.0 L 392.60557768924303 192.0 " stroke="black" fill="none"/><text x="392.60557768924303" y="188.0" fill="black" transform="rotate(335,392.60557768924303 188.0)" font-size="9">0.06 Kb</text><path d="M 430.85258964143424 200.0 L 430.85258964143424 192.0 " stroke="black" fill="none"/><text x="430.85258964143424" y="188.0" fill="black" transform="rotate(335,430.85258964143424 188.0)" font-size="9">0.07 Kb</text><path d="M 469.0996015936255 200.0 L 469.0996015936255 192.0 " stroke="black" fill="none"/><text x="469.0996015936255" y="188.0" fill="black" transform="rotate(335,469.0996015936255 188.0)" font-size="9">0.08 Kb</text><path d="M 507.34661354581675 200.0 L 507.34661354581675 192.0 " stroke="black" fill="none"/><text x="507.34661354581675" y="188.0" fill="black" transform="rotate(335,507.34661354581675 188.0)" font-size="9">0.09 Kb</text><path d="M 545.5936254980079 200.0 L 545.5936254980079 192.0 " stroke="black" fill="none"/><text x="545.5936254980079" y="188.0" fill="black" transform="rotate(335,545.5936254980079 188.0)" font-size="9">0.10 Kb</text><path d="M 583.8406374501992 200.0 L 583.8406374501992 192.0 " stroke="black" fill="none"/><text x="583.8406374501992" y="188.0" fill="black" transform="rotate(335,583.8406374501992 188.0)" font-size="9">0.11 Kb</text><path d="M 622.0876494023905 200.0 L 622.0876494023905 192.0 " stroke="black" fill="none"/><text x="622.0876494023905" y="188.0" fill="black" transform="rotate(335,622.0876494023905 188.0)" font-size="9">0.12 Kb</text><path d="M 660.3346613545816 200.0 L 660.3346613545816 192.0 " stroke="black" fill="none"/><text x="660.3346613545816" y="188.0" fill="black" transform="rotate(335,660.3346613545816 188.0)" font-size="9">0.13 Kb</text><path d="M 698.5816733067729 200.0 L 698.5816733067729 192.0 " stroke="black" fill="none"/><text x="698.5816733067729" y="188.0" fill="black" transform="rotate(335,698.5816733067729 188.0)" font-size="9">0.14 Kb</text><path d="M 736.8286852589642 200.0 L 736.8286852589642 192.0 " stroke="black" fill="none"/><text x="736.8286852589642" y="188.0" fill="black" transform="rotate(335,736.8286852589642 188.0)" font-size="9">0.15 Kb</text><path d="M 775.0756972111553 200.0 L 775.0756972111553 192.0 " stroke="black" fill="none"/><text x="775.0756972111553" y="188.0" fill="black" transform="rotate(335,775.0756972111553 188.0)" font-size="9">0.16 Kb</text><path d="M 813.3227091633466 200.0 L 813.3227091633466 192.0 " stroke="black" fill="none"/><text x="813.3227091633466" y="188.0" fill="black" transform="rotate(335,813.3227091633466 188.0)" font-size="9">0.17 Kb</text><path d="M 851.569721115538 200.0 L 851.569721115538 192.0 " stroke="black" fill="none"/><text x="851.569721115538" y="188.0" fill="black" transform="rotate(335,851.569721115538 188.0)" font-size="9">0.18 Kb</text><path d="M 889.816733067729 200.0 L 889.816733067729 192.0 " stroke="black" fill="none"/><text x="889.816733067729" y="188.0" fill="black" transform="rotate(335,889.816733067729 188.0)" font-size="9">0.19 Kb</text><path d="M 928.0637450199204 200.0 L 928.0637450199204 192.0 " stroke="black" fill="none"/><text x="928.0637450199204" y="188.0" fill="black" transform="rotate(335,928.0637450199204 188.0)" font-size="9">0.20 Kb</text><path d="M 966.3107569721117 200.0 L 966.3107569721117 192.0 " stroke="black" fill="none"/><text x="966.3107569721117" y="188.0" fill="black" transform="rotate(335,966.3107569721117 188.0)" font-size="9">0.21 Kb</text><path d="M 1004.5577689243028 200.0 L 1004.5577689243028 192.0 " stroke="black" fill="none"/><text x="1004.5577689243028" y="188.0" fill="black" transform="rotate(335,1004.5577689243028 188.0)" font-size="9">0.22 Kb</text><path d="M 1042.804780876494 200.0 L 1042.804780876494 192.0 " stroke="black" fill="none"/><text x="1042.804780876494" y="188.0" fill="black" transform="rotate(335,1042.804780876494 188.0)" font-size="9">0.23 Kb</text><path d="M 1081.0517928286854 200.0 L 1081.0517928286854 192.0 " stroke="black" fill="none"/><text x="1081.0517928286854" y="188.0" fill="black" transform="rotate(335,1081.0517928286854 188.0)" font-size="9">0.24 Kb</text><path d="M 144.0 615.0 L 1104.0 615.0 " stroke="black" fill="none"/><path d="M 147.82470119521912 615.0 L 147.82470119521912 617.0 " stroke="black" fill="none"/><path d="M 151.64940239043824 615.0 L 151.64940239043824 617.0 " stroke="black" fill="none"/><path d="M 155.47410358565736 615.0 L 155.47410358565736 617.0 " stroke="black" fill="none"/><path d="M 159.29880478087648 615.0 L 159.29880478087648 617.0 " stroke="black" fill="none"/><path d="M 166.94820717131475 615.0 L 166.94820717131475 617.0 " stroke="black" fill="none"/><path d="M 170.77290836653387 615.0 L 170.77290836653387 617.0 " stroke="black" fill="none"/><path d="M 174.597609561753 615.0 L 174.597609561753 617.0 " stroke="black" fill="none"/><path d="M 178.4223107569721 615.0 L 178.4223107569721 617.0 " stroke="black" fill="none"/><path d="M 186.07171314741038 615.0 L 186.07171314741038 617.0 " stroke="black" fill="none"/><path d="M 189.8964143426295 615.0 L 189.8964143426295 617.0 " stroke="black" fill="none"/><path d="M 193.72111553784862 615.0 L 193.72111553784862 617.0 " stroke="black" fill="none"/><path d="M 197.54581673306774 615.0 L 197.54581673306774 617.0 " stroke="black" fill="none"/><path d="M 205.19521912350598 615.0 L 205.19521912350598 617.0 " stroke="black" fill="none"/><path d="M 209.0199203187251 615.0 L 209.0199203187251 617.0 " stroke="black" fill="none"/><path d="M 212.84462151394422 615.0 L 212.84462151394422 617.0 " stroke="black" fill="none"/><path d="M 216.66932270916334 615.0 L 216.66932270916334 617.0 " stroke="black" fill="none"/><path d="M 224.31872509960158 615.0 L 224.31872509960158 617.0 " stroke="black" fill="none"/><path d="M 228.14342629482073 615.0 L 228.14342629482073 617.0 " stroke="black" fill="none"/><path d="M 231.96812749003985 615.0 L 231.96812749003985 617.0 " stroke="black" fill="none"/><path d="M 235.79282868525897 615.0 L 235.79282868525897 617.0 " stroke="black" fill="none"/><path d="M 243.4422310756972 615.0 L 243.4422310756972 617.0 " stroke="black" fill="none"/><path d="M 247.26693227091636 615.0 L 247.26693227091636 617.0 " stroke="black" fill="none"/><path d="M 251.09163346613548 615.0 L 251.09163346613548 617.0 " stroke="black" fill="none"/><path d="M 254.9163346613546 615.0 L 254.9163346613546 617.0 " stroke="black" fill="none"/><path d="M 262.56573705179284 615.0 L 262.56573705179284 617.0 " stroke="black" fill="none"/><path d="M 266.39043824701196 615.0 L 266.39043824701196 617.0 " stroke="black" fill="none"/><path d="M 270.2151394422311 615.0 L 270.2151394422311 617.0 " stroke="black" fill="none"/><path d="M 274.0398406374502 615.0 L 274.0398406374502 617.0 " stroke="black" fill="none"/><path d="M 281.68924302788844 615.0 L 281.68924302788844 617.0 " stroke="black" fill="none"/><path d="M 285.5139442231076 615.0 L 285.5139442231076 617.0 " stroke="black" fill="none"/><path d="M 289.3386454183267 615.0 L 289.3386454183267 617.0 " stroke="black" fill="none"/><path d="M 293.16334661354585 615.0 L 293.16334661354585 617.0 " stroke="black" fill="none"/><path d="M 300.8127490039841 615.0 L 300.8127490039841 617.0 " stroke="black" fill="none"/><path d="M 304.63745019920316 615.0 L 304.63745019920316 617.0 " stroke="black" fill="none"/><path d="M 308.46215139442234 615.0 L 308.46215139442234 617.0 " stroke="black" fill="none"/><path d="M 312.28685258964146 615.0 L 312.28685258964146 617.0 " stroke="black" fill="none"/><path d="M 319.9362549800797 615.0 L 319.9362549800797 617.0 " stroke="black" fill="none"/><path d="M 323.7609561752988 615.0 L 323.7609561752988 617.0 " stroke="black" fill="none"/><path d="M 327.58565737051794 615.0 L 327.58565737051794 617.0 " stroke="black" fill="none"/><path d="M 331.41035856573706 615.0 L 331.41035856573706 617.0 " stroke="black" fill="none"/><path d="M 339.0597609561753 615.0 L 339.0597609561753 617.0 " stroke="black" fill="none"/><path d="M 342.8844621513944 615.0 L 342.8844621513944 617.0 " stroke="black" fill="none"/><path d="M 346.70916334661354 615.0 L 346.70916334661354 617.0 " stroke="black" fill="none"/><path d="M 350.5338645418327 615.0 L 350.5338645418327 617.0 " stroke="black" fill="none"/><path d="M 358.18326693227095 615.0 L 358.18326693227095 617.0 " stroke="black" fill="none"/><path d="M 362.00796812749 615.0 L 362.00796812749 617.0 " stroke="black" fill="none"/><path d="M 365.8326693227092 615.0 L 365.8326693227092 617.0 " stroke="black" fill="none"/><path d="M 369.65737051792826 615.0 L 369.65737051792826 617.0 " stroke="black" fill="none"/><path d="M 377.30677290836655 615.0 L 377.30677290836655 617.0 " stroke="black" fill="none"/><path d="M 381.1314741035857 615.0 L 381.1314741035857 617.0 " stroke="black" fill="none"/><path d="M 384.9561752988048 615.0 L 384.9561752988048 617.0 " stroke="black" fill="none"/><path d="M 388.7808764940239 615.0 L 388.7808764940239 617.0 " stroke="black" fill="none"/><path d="M 396.43027888446215 615.0 L 396.43027888446215 617.0 " stroke="black" fill="none"/><path d="M 400.2549800796813 615.0 L 400.2549800796813 617.0 " stroke="black" fill="none"/><path d="M 404.0796812749004 615.0 L 404.0796812749004 617.0 " stroke="black" fill="none"/><path d="M 407.9043824701195 615.0 L 407.9043824701195 617.0 " stroke="black" fill="none"/><path d="M 415.55378486055776 615.0 L 415.55378486055776 617.0 " stroke="black" fill="none"/><path d="M 419.3784860557769 615.0 L 419.3784860557769 617.0 " stroke="black" fill="none"/><path d="M 423.20318725099605 615.0 L 423.20318725099605 617.0 " stroke="black" fill="none"/><path d="M 427.0278884462152 615.0 L 427.0278884462152 617.0 " stroke="black" fill="none"/><path d="M 434.6772908366534 615.0 L 434.6772908366534 617.0 " stroke="black" fill="none"/><path d="M 438.50199203187253 615.0 L 438.50199203187253 617.0 " stroke="black" fill="none"/><path d="M 442.32669322709165 615.0 L 442.32669322709165 617.0 " stroke="black" fill="none"/><path d="M 446.1513944223108 615.0 L 446.1513944223108 617.0 " stroke="black" fill="none"/><path d="M 453.800796812749 615.0 L 453.800796812749 617.0 " stroke="black" fill="none"/><path d="M 457.62549800796813 615.0 L 457.62549800796813 617.0 " stroke="black" fill="none"/><path d="M 461.45019920318725 615.0 L 461.45019920318725 617.0 " stroke="black" fill="none"/><path d="M 465.2749003984064 615.0 L 465.2749003984064 617.0 " stroke="black" fill="none"/><path d="M 472.9243027888446 615.0 L 472.9243027888446 617.0 " stroke="black" fill="none"/><path d="M 476.74900398406373 615.0 L 476.74900398406373 617.0 " stroke="black" fill="none"/><path d="M 480.5737051792829 615.0 L 480.5737051792829 617.0 " stroke="black" fill="none"/><path d="M 484.39840637450203 615.0 L 484.39840637450203 617.0 " stroke="black" fill="none"/><path d="M 492.04780876494027 615.0 L 492.04780876494027 617.0 " stroke="black" fill="none"/><path d="M 495.8725099601594 615.0 L 495.8725099601594 617.0 " stroke="black" fill="none"/><path d="M 499.6972111553785 615.0 L 499.6972111553785 617.0 " stroke="black" fill="none"/><path d="M 503.52191235059763 615.0 L 503.52191235059763 617.0 " stroke="black" fill="none"/><path d="M 511.17131474103587 615.0 L 511.17131474103587 617.0 " stroke="black" fill="none"/><path d="M 514.9960159362549 615.0 L 514.9960159362549 617.0 " stroke="black" fill="none"/><path d="M 518.8207171314741 615.0 L 518.8207171314741 617.0 " stroke="black" fill="none"/><path d="M 522.6454183266933 615.0 L 522.6454183266933 617.0 " stroke="black" fill="none"/><path d="M 530.2948207171314 615.0 L 530.2948207171314 617.0 " stroke="black" fill="none"/><path d="M 534.1195219123506 615.0 L 534.1195219123506 617.0 " stroke="black" fill="none"/><path d="M 537.9442231075698 615.0 L 537.9442231075698 617.0 " stroke="black" fill="none"/><path d="M 541.7689243027888 615.0 L 541.7689243027888 617.0 " stroke="black" fill="none"/><path d="M 549.4183266932271 615.0 L 549.4183266932271 617.0 " stroke="black" fill="none"/><path d="M 553.2430278884462 615.0 L 553.2430278884462 617.0 " stroke="black" fill="none"/><path d="M 557.0677290836654 615.0 L 557.0677290836654 617.0 " stroke="black" fill="none"/><path d="M 560.8924302788845 615.0 L 560.8924302788845 617.0 " stroke="black" fill="none"/><path d="M 568.5418326693227 615.0 L 568.5418326693227 617.0 " stroke="black" fill="none"/><path d="M 572.3665338645419 615.0 L 572.3665338645419 617.0 " stroke="black" fill="none"/><path d="M 576.191235059761 615.0 L 576.191235059761 617.0 " stroke="black" fill="none"/><path d="M 580.01593625498 615.0 L 580.01593625498 617.0 " stroke="black" fill="none"/><path d="M 587.6653386454184 615.0 L 587.6653386454184 617.0 " stroke="black" fill="none"/><path d="M 591.4900398406375 615.0 L 591.4900398406375 617.0 " stroke="black" fill="none"/><path d="M 595.3147410358565 615.0 L 595.3147410358565 617.0 " stroke="black" fill="none"/><path d="M 599.1394422310757 615.0 L 599.1394422310757 617.0 " stroke="black" fill="none"/><path d="M 606.788844621514 615.0 L 606.788844621514 617.0 " stroke="black" fill="none"/><path d="M 610.6135458167331 615.0 L 610.6135458167331 617.0 " stroke="black" fill="none"/><path d="M 614.4382470119522 615.0 L 614.4382470119522 617.0 " stroke="black" fill="none"/><path d="M 618.2629482071713 615.0 L 618.2629482071713 617.0 " stroke="black" fill="none"/><path d="M 625.9123505976096 615.0 L 625.9123505976096 617.0 " stroke="black" fill="none"/><path d="M 629.7370517928287 615.0 L 629.7370517928287 617.0 " stroke="black" fill="none"/><path d="M 633.5617529880478 615.0 L 633.5617529880478 617.0 " stroke="black" fill="none"/><path d="M 637.386454183267 615.0 L 637.386454183267 617.0 " stroke="black" fill="none"/><path d="M 645.0358565737051 615.0 L 645.0358565737051 617.0 " stroke="black" fill="none"/><path d="M 648.8605577689243 615.0 L 648.8605577689243 617.0 " stroke="black" fill="none"/><path d="M 652.6852589641435 615.0 L 652.6852589641435 617.0 " stroke="black" fill="none"/><path d="M 656.5099601593625 615.0 L 656.5099601593625 617.0 " stroke="black" fill="none"/><path d="M 664.1593625498008 615.0 L 664.1593625498008 617.0 " stroke="black" fill="none"/><path d="M 667.98406374502 615.0 L 667.98406374502 617.0 " stroke="black" fill="none"/><path d="M 671.808764940239 615.0 L 671.808764940239 617.0 " stroke="black" fill="none"/><path d="M 675.6334661354582 615.0 L 675.6334661354582 617.0 " stroke="black" fill="none"/><path d="M 683.2828685258964 615.0 L 683.2828685258964 617.0 " stroke="black" fill="none"/><path d="M 687.1075697211155 615.0 L 687.1075697211155 617.0 " stroke="black" fill="none"/><path d="M 690.9322709163347 615.0 L 690.9322709163347 617.0 " stroke="black" fill="none"/><path d="M 694.7569721115538 615.0 L 694.7569721115538 617.0 " stroke="black" fill="none"/><path d="M 702.4063745019921 615.0 L 702.4063745019921 617.0 " stroke="black" fill="none"/><path d="M 706.2310756972112 615.0 L 706.2310756972112 617.0 " stroke="black" fill="none"/><path d="M 710.0557768924303 615.0 L 710.0557768924303 617.0 " stroke="black" fill="none"/><path d="M 713.8804780876494 615.0 L 713.8804780876494 617.0 " stroke="black" fill="none"/><path d="M 721.5298804780876 615.0 L 721.5298804780876 617.0 " stroke="black" fill="none"/><path d="M 725.3545816733068 615.0 L 725.3545816733068 617.0 " stroke="black" fill="none"/><path d="M 729.1792828685259 615.0 L 729.1792828685259 617.0 " stroke="black" fill="none"/><path d="M 733.0039840637451 615.0 L 733.0039840637451 617.0 " stroke="black" fill="none"/><path d="M 740.6533864541833 615.0 L 740.6533864541833 617.0 " stroke="black" fill="none"/><path d="M 744.4780876494024 615.0 L 744.4780876494024 617.0 " stroke="black" fill="none"/><path d="M 748.3027888446215 615.0 L 748.3027888446215 617.0 " stroke="black" fill="none"/><path d="M 752.1274900398406 615.0 L 752.1274900398406 617.0 " stroke="black" fill="none"/><path d="M 759.776892430279 615.0 L 759.776892430279 617.0 " stroke="black" fill="none"/><path d="M 763.601593625498 615.0 L 763.601593625498 617.0 " stroke="black" fill="none"/><path d="M 767.4262948207172 615.0 L 767.4262948207172 617.0 " stroke="black" fill="none"/><path d="M 771.2509960159363 615.0 L 771.2509960159363 617.0 " stroke="black" fill="none"/><path d="M 778.9003984063745 615.0 L 778.9003984063745 617.0 " stroke="black" fill="none"/><path d="M 782.7250996015937 615.0 L 782.7250996015937 617.0 " stroke="black" fill="none"/><path d="M 786.5498007968127 615.0 L 786.5498007968127 617.0 " stroke="black" fill="none"/><path d="M 790.3745019920319 615.0 L 790.3745019920319 617.0 " stroke="black" fill="none"/><path d="M 798.0239043824702 615.0 L 798.0239043824702 617.0 " stroke="black" fill="none"/><path d="M 801.8486055776892 615.0 L 801.8486055776892 617.0 " stroke="black" fill="none"/><path d="M 805.6733067729084 615.0 L 805.6733067729084 617.0 " stroke="black" fill="none"/><path d="M 809.4980079681275 615.0 L 809.4980079681275 617.0 " stroke="black" fill="none"/><path d="M 817.1474103585658 615.0 L 817.1474103585658 617.0 " stroke="black" fill="none"/><path d="M 820.9721115537849 615.0 L 820.9721115537849 617.0 " stroke="black" fill="none"/><path d="M 824.7968127490041 615.0 L 824.7968127490041 617.0 " stroke="black" fill="none"/><path d="M 828.6215139442231 615.0 L 828.6215139442231 617.0 " stroke="black" fill="none"/><path d="M 836.2709163346614 615.0 L 836.2709163346614 617.0 " stroke="black" fill="none"/><path d="M 840.0956175298805 615.0 L 840.0956175298805 617.0 " stroke="black" fill="none"/><path d="M 843.9203187250996 615.0 L 843.9203187250996 617.0 " stroke="black" fill="none"/><path d="M 847.7450199203188 615.0 L 847.7450199203188 617.0 " stroke="black" fill="none"/><path d="M 855.394422310757 615.0 L 855.394422310757 617.0 " stroke="black" fill="none"/><path d="M 859.2191235059761 615.0 L 859.2191235059761 617.0 " stroke="black" fill="none"/><path d="M 863.0438247011953 615.0 L 863.0438247011953 617.0 " stroke="black" fill="none"/><path d="M 866.8685258964143 615.0 L 866.8685258964143 617.0 " stroke="black" fill="none"/><path d="M 874.5179282868526 615.0 L 874.5179282868526 617.0 " stroke="black" fill="none"/><path d="M 878.3426294820717 615.0 L 878.3426294820717 617.0 " stroke="black" fill="none"/><path d="M 882.1673306772909 615.0 L 882.1673306772909 617.0 " stroke="black" fill="none"/><path d="M 885.99203187251 615.0 L 885.99203187251 617.0 " stroke="black" fill="none"/><path d="M 893.6414342629482 615.0 L 893.6414342629482 617.0 " stroke="black" fill="none"/><path d="M 897.4661354581674 615.0 L 897.4661354581674 617.0 " stroke="black" fill="none"/><path d="M 901.2908366533865 615.0 L 901.2908366533865 617.0 " stroke="black" fill="none"/><path d="M 905.1155378486056 615.0 L 905.1155378486056 617.0 " stroke="black" fill="none"/><path d="M 912.7649402390439 615.0 L 912.7649402390439 617.0 " stroke="black" fill="none"/><path d="M 916.589641434263 615.0 L 916.589641434263 617.0 " stroke="black" fill="none"/><path d="M 920.4143426294821 615.0 L 920.4143426294821 617.0 " stroke="black" fill="none"/><path d="M 924.2390438247012 615.0 L 924.2390438247012 617.0 " stroke="black" fill="none"/><path d="M 931.8884462151394 615.0 L 931.8884462151394 617.0 " stroke="black" fill="none"/><path d="M 935.7131474103586 615.0 L 935.7131474103586 617.0 " stroke="black" fill="none"/><path d="M 939.5378486055777 615.0 L 939.5378486055777 617.0 " stroke="black" fill="none"/><path d="M 943.3625498007968 615.0 L 943.3625498007968 617.0 " stroke="black" fill="none"/><path d="M 951.0119521912351 615.0 L 951.0119521912351 617.0 " stroke="black" fill="none"/><path d="M 954.8366533864543 615.0 L 954.8366533864543 617.0 " stroke="black" fill="none"/><path d="M 958.6613545816733 615.0 L 958.6613545816733 617.0 " stroke="black" fill="none"/><path d="M 962.4860557768925 615.0 L 962.4860557768925 617.0 " stroke="black" fill="none"/><path d="M 970.1354581673307 615.0 L 970.1354581673307 617.0 " stroke="black" fill="none"/><path d="M 973.9601593625498 615.0 L 973.9601593625498 617.0 " stroke="black" fill="none"/><path d="M 977.784860557769 615.0 L 977.784860557769 617.0 " stroke="black" fill="none"/><path d="M 981.609561752988 615.0 L 981.609561752988 617.0 " stroke="black" fill="none"/><path d="M 989.2589641434263 615.0 L 989.2589641434263 617.0 " stroke="black" fill="none"/><path d="M 993.0836653386455 615.0 L 993.0836653386455 617.0 " stroke="black" fill="none"/><path d="M 996.9083665338645 615.0 L 996.9083665338645 617.0 " stroke="black" fill="none"/><path d="M 1000.7330677290837 615.0 L 1000.7330677290837 617.0 " stroke="black" fill="none"/><path d="M 1008.3824701195219 615.0 L 1008.3824701195219 617.0 " stroke="black" fill="none"/><path d="M 1012.2071713147411 615.0 L 1012.2071713147411 617.0 " stroke="black" fill="none"/><path d="M 1016.0318725099602 615.0 L 1016.0318725099602 617.0 " stroke="black" fill="none"/><path d="M 1019.8565737051794 615.0 L 1019.8565737051794 617.0 " stroke="black" fill="none"/><path d="M 1027.5059760956176 615.0 L 1027.5059760956176 617.0 " stroke="black" fill="none"/><path d="M 1031.3306772908368 615.0 L 1031.3306772908368 617.0 " stroke="black" fill="none"/><path d="M 1035.1553784860557 615.0 L 1035.1553784860557 617.0 " stroke="black" fill="none"/><path d="M 1038.980079681275 615.0 L 1038.980079681275 617.0 " stroke="black" fill="none"/><path d="M 1046.629482071713 615.0 L 1046.629482071713 617.0 " stroke="black" fill="none"/><path d="M 1050.4541832669324 615.0 L 1050.4541832669324 617.0 " stroke="black" fill="none"/><path d="M 1054.2788844621514 615.0 L 1054.2788844621514 617.0 " stroke="black" fill="none"/><path d="M 1058.1035856573706 615.0 L 1058.1035856573706 617.0 " stroke="black" fill="none"/><path d="M 1065.7529880478087 615.0 L 1065.7529880478087 617.0 " stroke="black" fill="none"/><path d="M 1069.577689243028 615.0 L 1069.577689243028 617.0 " stroke="black" fill="none"/><path d="M 1073.402390438247 615.0 L 1073.402390438247 617.0 " stroke="black" fill="none"/><path d="M 1077.2270916334662 615.0 L 1077.2270916334662 617.0 " stroke="black" fill="none"/><path d="M 1084.8764940239043 615.0 L 1084.8764940239043 617.0 " stroke="black" fill="none"/><path d="M 1088.7011952191235 615.0 L 1088.7011952191235 617.0 " stroke="black" fill="none"/><path d="M 1092.5258964143427 615.0 L 1092.5258964143427 617.0 " stroke="black" fill="none"/><path d="M 1096.3505976095616 615.0 L 1096.3505976095616 617.0 " stroke="black" fill="none"/><path d="M 163.12350597609563 615.0 L 163.12350597609563 620.0 " stroke="black" fill="none"/><path d="M 201.37051792828686 615.0 L 201.37051792828686 620.0 " stroke="black" fill="none"/><path d="M 239.6175298804781 615.0 L 239.6175298804781 620.0 " stroke="black" fill="none"/><path d="M 277.8645418326693 615.0 L 277.8645418326693 620.0 " stroke="black" fill="none"/><path d="M 316.1115537848606 615.0 L 316.1115537848606 620.0 " stroke="black" fill="none"/><path d="M 354.3585657370518 615.0 L 354.3585657370518 620.0 " stroke="black" fill="none"/><path d="M 392.60557768924303 615.0 L 392.60557768924303 620.0 " stroke="black" fill="none"/><path d="M 430.8525896414343 615.0 L 430.8525896414343 620.0 " stroke="black" fill="none"/><path d="M 469.0996015936255 615.0 L 469.0996015936255 620.0 " stroke="black" fill="none"/><path d="M 507.34661354581675 615.0 L 507.34661354581675 620.0 " stroke="black" fill="none"/><path d="M 545.593625498008 615.0 L 545.593625498008 620.0 " stroke="black" fill="none"/><path d="M 583.8406374501992 615.0 L 583.8406374501992 620.0 " stroke="black" fill="none"/><path d="M 622.0876494023905 615.0 L 622.0876494023905 620.0 " stroke="black" fill="none"/><path d="M 660.3346613545817 615.0 L 660.3346613545817 620.0 " stroke="black" fill="none"/><path d="M 698.5816733067729 615.0 L 698.5816733067729 620.0 " stroke="black" fill="none"/><path d="M 736.8286852589641 615.0 L 736.8286852589641 620.0 " stroke="black" fill="none"/><path d="M 775.0756972111554 615.0 L 775.0756972111554 620.0 " stroke="black" fill="none"/><path d="M 813.3227091633466 615.0 L 813.3227091633466 620.0 " stroke="black" fill="none"/><path d="M 851.5697211155378 615.0 L 851.5697211155378 620.0 " stroke="black" fill="none"/><path d="M 889.8167330677292 615.0 L 889.8167330677292 620.0 " stroke="black" fill="none"/><path d="M 928.0637450199204 615.0 L 928.0637450199204 620.0 " stroke="black" fill="none"/><path d="M 966.3107569721116 615.0 L 966.3107569721116 620.0 " stroke="black" fill="none"/><path d="M 1004.5577689243029 615.0 L 1004.5577689243029 620.0 " stroke="black" fill="none"/><path d="M 1042.804780876494 615.0 L 1042.804780876494 620.0 " stroke="black" fill="none"/><path d="M 1081.0517928286854 615.0 L 1081.0517928286854 620.0 " stroke="black" fill="none"/><path d="M 144.0 615.0 L 144.0 623.0 " stroke="black" fill="none"/><text x="144.0" y="627.0" fill="black" transform="rotate(25,144.0 627.0)" font-size="9">0.00 Kb</text><path d="M 182.24701195219123 615.0 L 182.24701195219123 623.0 " stroke="black" fill="none"/><text x="182.24701195219123" y="627.0" fill="black" transform="rotate(25,182.24701195219123 627.0)" font-size="9">0.01 Kb</text><path d="M 220.49402390438246 615.0 L 220.49402390438246 623.0 " stroke="black" fill="none"/><text x="220.49402390438246" y="627.0" fill="black" transform="rotate(25,220.49402390438246 627.0)" font-size="9">0.02 Kb</text><path d="M 258.7410358565737 615.0 L 258.7410358565737 623.0 " stroke="black" fill="none"/><text x="258.7410358565737" y="627.0" fill="black" transform="rotate(25,258.7410358565737 627.0)" font-size="9">0.03 Kb</text><path d="M 296.9880478087649 615.0 L 296.9880478087649 623.0 " stroke="black" fill="none"/><text x="296.9880478087649" y="627.0" fill="black" transform="rotate(25,296.9880478087649 627.0)" font-size="9">0.04 Kb</text><path d="M 335.2350597609562 615.0 L 335.2350597609562 623.0 " stroke="black" fill="none"/><text x="335.2350597609562" y="627.0" fill="black" transform="rotate(25,335.2350597609562 627.0)" font-size="9">0.05 Kb</text><path d="M 373.48207171314743 615.0 L 373.48207171314743 623.0 " stroke="black" fill="none"/><text x="373.48207171314743" y="627.0" fill="black" transform="rotate(25,373.48207171314743 627.0)" font-size="9">0.06 Kb</text><path d="M 411.72908366533864 615.0 L 411.72908366533864 623.0 " stroke="black" fill="none"/><text x="411.72908366533864" y="627.0" fill="black" transform="rotate(25,411.72908366533864 627.0)" font-size="9">0.07 Kb</text><path d="M 449.9760956175299 615.0 L 449.9760956175299 623.0 " stroke="black" fill="none"/><text x="449.9760956175299" y="627.0" fill="black" transform="rotate(25,449.9760956175299 627.0)" font-size="9">0.08 Kb</text><path d="M 488.22310756972115 615.0 L 488.22310756972115 623.0 " stroke="black" fill="none"/><text x="488.22310756972115" y="627.0" fill="black" transform="rotate(25,488.22310756972115 627.0)" font-size="9">0.09 Kb</text><path d="M 526.4701195219124 615.0 L 526.4701195219124 623.0 " stroke="black" fill="none"/><text x="526.4701195219124" y="627.0" fill="black" transform="rotate(25,526.4701195219124 627.0)" font-size="9">0.10 Kb</text><path d="M 564.7171314741036 615.0 L 564.7171314741036 623.0 " stroke="black" fill="none"/><text x="564.7171314741036" y="627.0" fill="black" transform="rotate(25,564.7171314741036 627.0)" font-size="9">0.11 Kb</text><path d="M 602.9641434262949 615.0 L 602.9641434262949 623.0 " stroke="black" fill="none"/><text x="602.9641434262949" y="627.0" fill="black" transform="rotate(25,602.9641434262949 627.0)" font-size="9">0.12 Kb</text><path d="M 641.2111553784861 615.0 L 641.2111553784861 623.0 " stroke="black" fill="none"/><text x="641.2111553784861" y="627.0" fill="black" transform="rotate(25,641.2111553784861 627.0)" font-size="9">0.13 Kb</text><path d="M 679.4581673306773 615.0 L 679.4581673306773 623.0 " stroke="black" fill="none"/><text x="679.4581673306773" y="627.0" fill="black" transform="rotate(25,679.4581673306773 627.0)" font-size="9">0.14 Kb</text><path d="M 717.7051792828686 615.0 L 717.7051792828686 623.0 " stroke="black" fill="none"/><text x="717.7051792828686" y="627.0" fill="black" transform="rotate(25,717.7051792828686 627.0)" font-size="9">0.15 Kb</text><path d="M 755.9521912350598 615.0 L 755.9521912350598 623.0 " stroke="black" fill="none"/><text x="755.9521912350598" y="627.0" fill="black" transform="rotate(25,755.9521912350598 627.0)" font-size="9">0.16 Kb</text><path d="M 794.199203187251 615.0 L 794.199203187251 623.0 " stroke="black" fill="none"/><text x="794.199203187251" y="627.0" fill="black" transform="rotate(25,794.199203187251 627.0)" font-size="9">0.17 Kb</text><path d="M 832.4462151394423 615.0 L 832.4462151394423 623.0 " stroke="black" fill="none"/><text x="832.4462151394423" y="627.0" fill="black" transform="rotate(25,832.4462151394423 627.0)" font-size="9">0.18 Kb</text><path d="M 870.6932270916335 615.0 L 870.6932270916335 623.0 " stroke="black" fill="none"/><text x="870.6932270916335" y="627.0" fill="black" transform="rotate(25,870.6932270916335 627.0)" font-size="9">0.19 Kb</text><path d="M 908.9402390438247 615.0 L 908.9402390438247 623.0 " stroke="black" fill="none"/><text x="908.9402390438247" y="627.0" fill="black" transform="rotate(25,908.9402390438247 627.0)" font-size="9">0.20 Kb</text><path d="M 947.187250996016 615.0 L 947.187250996016 623.0 " stroke="black" fill="none"/><text x="947.187250996016" y="627.0" fill="black" transform="rotate(25,947.187250996016 627.0)" font-size="9">0.21 Kb</text><path d="M 985.4342629482072 615.0 L 985.4342629482072 623.0 " stroke="black" fill="none"/><text x="985.4342629482072" y="627.0" fill="black" transform="rotate(25,985.4342629482072 627.0)" font-size="9">0.22 Kb</text><path d="M 1023.6812749003984 615.0 L 1023.6812749003984 623.0 " stroke="black" fill="none"/><text x="1023.6812749003984" y="627.0" fill="black" transform="rotate(25,1023.6812749003984 627.0)" font-size="9">0.23 Kb</text><path d="M 1061.9282868525897 615.0 L 1061.9282868525897 623.0 " stroke="black" fill="none"/><text x="1061.9282868525897" y="627.0" fill="black" transform="rotate(25,1061.9282868525897 627.0)" font-size="9">0.24 Kb</text><path d="M 1100.175298804781 615.0 L 1100.175298804781 623.0 " stroke="black" fill="none"/><text x="1100.175298804781" y="627.0" fill="black" transform="rotate(25,1100.175298804781 627.0)" font-size="9">0.25 Kb</text><defs><clipPath id="clipPath1"></clipPath></defs></svg>